<svg width="40" height="40" viewBox="0 0 40 40" fill="none" xmlns="http://www.w3.org/2000/svg">
<g clip-path="url(#clip0)">
<path d="M0.92924 40C0.704631 40 0.486125 39.9112 0.324077 39.7473C0.110454 39.5312 0.0280562 39.2175 0.108317 38.9243L2.70872 29.4284C1.08976 26.5009 0.236186 23.1891 0.237407 19.8273C0.241984 8.89435 9.13908 0 20.0711 0C25.3735 0.00213623 30.3558 2.06757 34.1006 5.81512C37.8448 9.56299 39.906 14.545 39.9045 19.8431C39.8996 30.7764 31.0025 39.6713 20.0711 39.6713C20.0711 39.6713 20.0628 39.6713 20.0625 39.6713C16.8695 39.6701 13.7039 38.8919 10.8853 37.4179L1.145 39.9722C1.07359 39.9908 1.00096 40 0.92924 40V40Z" fill="#E5E5E5"/>
<path d="M0.929199 39.1488L3.62207 29.3151C1.961 26.437 1.08728 23.1722 1.0885 19.8275C1.09277 9.36395 9.60779 0.851074 20.071 0.851074C25.1486 0.85321 29.9145 2.82953 33.4985 6.41656C37.0822 10.0036 39.0551 14.7717 39.0533 19.8428C39.0487 30.306 30.5325 38.8201 20.071 38.8201C20.0704 38.8201 20.0714 38.8201 20.071 38.8201H20.0628C16.8859 38.8189 13.7646 38.0221 10.9921 36.5099L0.929199 39.1488ZM11.4581 33.0746L12.0345 33.4161C14.4564 34.8535 17.2332 35.6136 20.0649 35.6152H20.071C28.7667 35.6152 35.8444 28.5388 35.848 19.8416C35.8495 15.6268 34.2101 11.6635 31.2313 8.68219C28.2522 5.70093 24.2913 4.05817 20.0768 4.05634C11.3741 4.05634 4.29681 11.1318 4.29346 19.8287C4.29224 22.8091 5.12598 25.7113 6.70557 28.2229L7.08093 28.8198L5.48669 34.6401L11.4581 33.0746Z" fill="white"/>
<path d="M1.58936 38.4863L4.18915 28.9926C2.58514 26.2143 1.74194 23.0621 1.74286 19.8337C1.74683 9.73236 9.96735 1.51428 20.0677 1.51428C24.9701 1.51642 29.5712 3.42438 33.0304 6.88721C36.4905 10.35 38.3948 14.953 38.3929 19.848C38.3887 29.9496 30.1678 38.1686 20.0687 38.1686C20.0677 38.1686 20.069 38.1686 20.0687 38.1686H20.0604C16.9937 38.1674 13.9801 37.3978 11.3037 35.939L1.58936 38.4863Z" fill="#64B161"/>
<path d="M0.929199 39.1488L3.62207 29.3151C1.961 26.437 1.08728 23.1722 1.0885 19.8275C1.09277 9.36395 9.60779 0.851074 20.071 0.851074C25.1486 0.85321 29.9145 2.82953 33.4985 6.41656C37.0822 10.0036 39.0551 14.7717 39.0533 19.8428C39.0487 30.306 30.5325 38.8201 20.071 38.8201C20.0704 38.8201 20.0714 38.8201 20.071 38.8201H20.0628C16.8859 38.8189 13.7646 38.0221 10.9921 36.5099L0.929199 39.1488ZM11.4581 33.0746L12.0345 33.4161C14.4564 34.8535 17.2332 35.6136 20.0649 35.6152H20.071C28.7667 35.6152 35.8444 28.5388 35.848 19.8416C35.8495 15.6268 34.2101 11.6635 31.2313 8.68219C28.2522 5.70093 24.2913 4.05817 20.0768 4.05634C11.3741 4.05634 4.29681 11.1318 4.29346 19.8287C4.29224 22.8091 5.12598 25.7113 6.70557 28.2229L7.08093 28.8198L5.48669 34.6401L11.4581 33.0746Z" fill="white"/>
<path fill-rule="evenodd" clip-rule="evenodd" d="M15.3267 11.8942C14.9715 11.1044 14.5973 11.0885 14.2592 11.0748C13.9827 11.0629 13.6663 11.0635 13.3504 11.0635C13.0342 11.0635 12.5203 11.1825 12.0858 11.657C11.6509 12.1316 10.4253 13.2791 10.4253 15.6127C10.4253 17.9467 12.1251 20.2017 12.3622 20.5184C12.5994 20.8349 15.6435 25.7769 20.4644 27.6782C24.471 29.2584 25.2861 28.944 26.1559 28.865C27.0256 28.786 28.962 27.7175 29.3572 26.6101C29.7527 25.5026 29.7527 24.5535 29.634 24.3548C29.5152 24.1574 29.1991 24.0386 28.7248 23.8015C28.2506 23.5644 25.9188 22.4166 25.4839 22.2586C25.049 22.1002 24.7328 22.0214 24.4167 22.4963C24.1002 22.9705 23.192 24.0386 22.9152 24.3548C22.6384 24.6719 22.3616 24.7116 21.8874 24.4741C21.4131 24.2364 19.8854 23.7359 18.0733 22.12C16.6634 20.863 15.7112 19.3102 15.4344 18.8354C15.158 18.3612 15.4299 18.1268 15.6429 17.8677C16.0265 17.4011 16.6701 16.5621 16.8282 16.246C16.9863 15.9292 16.9072 15.6524 16.7888 15.415C16.6701 15.1779 15.7482 12.8323 15.3267 11.8942V11.8942Z" fill="white"/>
</g>
<defs>
<clipPath id="clip0">
<rect width="40" height="40" fill="white"/>
</clipPath>
</defs>
</svg>
